<?xml version="1.0" encoding="UTF-8"?>
<svg id="Layer_1" xmlns="http://www.w3.org/2000/svg" version="1.1" viewBox="0 0 512 512">
  <!-- Generator: Adobe Illustrator 30.1.0, SVG Export Plug-In . SVG Version: 2.1.1 Build 136)  -->
  <defs>
    <style>
      .st0 {
        fill: #fff;
      }
    </style>
  </defs>
  <path class="st0" d="M303.4,320.5h-98.3v-9.8c0-16.7,1.9-30.3,5.7-40.8,3.8-10.4,9.4-20,16.9-28.6,7.5-8.6,24.4-23.8,50.6-45.5,14-11.4,21-21.8,21-31.3s-2.8-16.9-8.4-22.1c-5.6-5.3-14.1-7.9-25.5-7.9s-22.4,4.1-30.4,12.2c-8,8.1-13.2,22.3-15.4,42.4l-100.4-12.4c3.4-36.9,16.9-66.6,40.2-89.1,23.4-22.5,59.2-33.8,107.5-33.8s68,7.9,91.1,23.5c31.4,21.2,47.1,49.5,47.1,84.9s-4.1,28.8-12.2,42.4c-8.1,13.6-24.7,30.3-49.7,49.9-17.4,13.8-28.4,24.9-33,33.2-4.6,8.4-6.9,19.3-6.9,32.7ZM201.7,346.6h105.3v92.9h-105.3v-92.9Z"/>
</svg>