<?xml version="1.0" encoding="UTF-8"?>
<svg id="Layer_1" xmlns="http://www.w3.org/2000/svg" version="1.1" viewBox="0 0 512 512">
  <!-- Generator: Adobe Illustrator 30.1.0, SVG Export Plug-In . SVG Version: 2.1.1 Build 136)  -->
  <defs>
    <style>
      .st0 {
        fill: #fff;
      }
    </style>
  </defs>
  <path class="st0" d="M198.5,162.8l11.3,20.3c10.2,18.3,6.1,42.3-10,58.4h0s-19.5,19.5,15.9,54.9c35.3,35.3,54.8,15.9,54.9,15.9h0c16.1-16.1,40.1-20.2,58.4-10l20.3,11.3c27.6,15.4,30.9,54.1,6.6,78.4-14.6,14.6-32.5,25.9-52.2,26.7-33.3,1.3-89.7-7.2-146.4-63.8-56.6-56.6-65.1-113.1-63.8-146.4.7-19.8,12.1-37.6,26.7-52.2,24.3-24.3,63-21,78.4,6.6Z"/>
  <path class="st0" d="M254.7,102.9c1.2-7.1,7.9-12,15-10.8.4,0,1.9.3,2.6.5,1.5.3,3.6.8,6.1,1.6,5.2,1.5,12.4,4,21.1,8,17.4,8,40.5,21.9,64.4,45.9,24,24,37.9,47.1,45.9,64.4,4,8.7,6.5,15.9,8,21.1.8,2.6,1.3,4.7,1.6,6.1.2.7.3,1.3.4,1.8v.5c1.3,7.1-3.5,14.1-10.7,15.3-7.1,1.2-13.8-3.7-15-10.8,0-.2-.1-.7-.2-1.2-.2-1-.6-2.5-1.2-4.5-1.2-4-3.2-10.1-6.6-17.5-6.8-14.8-19-35.3-40.6-56.8-21.6-21.6-42-33.8-56.8-40.6-7.4-3.4-13.4-5.4-17.5-6.6-2-.6-4.6-1.2-5.5-1.4-7.1-1.2-12.1-7.9-10.9-15Z"/>
  <path class="st0" d="M357.7,237c2,6.9-2,14.2-9,16.2-6.9,2-14.1-2-16.1-8.8v-.2c-.2-.3-.3-.8-.7-1.5-.6-1.5-1.8-4-3.8-7.3-3.9-6.6-10.9-16.5-23.1-28.7-12.2-12.2-22.1-19.2-28.7-23.1-3.3-1.9-5.7-3.1-7.3-3.8-.8-.3-1.3-.5-1.5-.6h-.2c-6.8-2.1-10.8-9.3-8.8-16.2,2-6.9,9.2-11,16.2-9"/>
  <path class="st0" d="M274.8,154.1h0s0,0,0,0h0s.1,0,.1,0h.3c.3.2.6.3,1,.4.8.3,1.8.7,3.1,1.2,2.5,1.1,6,2.8,10.3,5.3,8.5,5,20.2,13.4,33.9,27.1,13.7,13.7,22.1,25.3,27.1,33.9,2.5,4.3,4.2,7.7,5.3,10.3.5,1.3.9,2.3,1.2,3.1.1.4.2.7.3,1v.3c.1,0,.1.1.1.1h0c0,0,0,0,0,0"/>
</svg>