<?xml version="1.0" encoding="UTF-8"?>
<svg id="Layer_1" xmlns="http://www.w3.org/2000/svg" version="1.1" viewBox="0 0 24 24">
  <!-- Generator: Adobe Illustrator 30.1.0, SVG Export Plug-In . SVG Version: 2.1.1 Build 136)  -->
  <defs>
    <style>
      .st0 {
        fill: none;
      }

      .st1 {
        fill: #ffc314;
      }
    </style>
  </defs>
  <path class="st1" d="M21.2,22.2c.2,0,.4.2.4.4s-.2.4-.4.4H3.9c-.2,0-.4-.2-.4-.4s.2-.4.4-.4h17.4,0Z"/>
  <polygon class="st0" points="16.3 12.1 2.9 12.1 1.2 17 .2 21.3 4.6 21.3 16.3 21.3 16.3 12.1"/>
  <g>
    <path class="st1" d="M11.8,10.5c.9,0,1.8.3,2.5.8.7.6,1.1,1.4,1.2,2.3,0,.9-.3,1.8-.8,2.5s-1.4,1.1-2.3,1.2-1.8-.3-2.5-.8c-.7-.6-1.1-1.4-1.2-2.3s.3-1.8.8-2.5c.6-.7,1.4-1.1,2.3-1.2h0Z"/>
    <path class="st1" d="M11.2,7.3c0-.3.2-.5.4-.5s.5.2.5.4v1.2c.1.3,0,.5-.3.5s-.5-.2-.5-.4v-1.2h0Z"/>
    <path class="st1" d="M16,8.6c.2-.2.4-.2.6,0s.2.4,0,.6l-.8.9c-.2.2-.4.2-.6,0-.2-.2-.2-.4,0-.6l.8-.9h0Z"/>
    <path class="st1" d="M18.6,13c.3,0,.5.2.5.4s-.2.5-.4.5h-1.2c-.3,0-.5,0-.5-.3s.2-.5.4-.5h1.2Z"/>
    <path class="st1" d="M17.3,17.8c.2.2.2.4,0,.6s-.4.2-.6,0l-.9-.8c-.2-.2-.2-.4,0-.6s.4-.2.6,0l.9.8h0Z"/>
    <path class="st1" d="M12.8,20.5c0,.3-.2.5-.4.5s-.5-.2-.5-.4v-1.2c-.1-.3,0-.5.3-.5s.5.2.5.4v1.2h0Z"/>
    <path class="st1" d="M8,19.2c-.2.2-.4.2-.6,0s-.2-.4,0-.6l.8-.9c.2-.2.4-.2.6,0s.2.4,0,.6l-.8.9h0Z"/>
    <path class="st1" d="M5.4,14.7c-.3,0-.5-.2-.5-.4s.2-.5.4-.5h1.2c.3,0,.5,0,.5.3s-.2.5-.4.5h-1.2,0Z"/>
    <path class="st1" d="M6.7,9.9c-.2-.2-.2-.4,0-.6.2-.2.4-.2.6,0l.9.8c.2.2.2.4,0,.6-.2.2-.4.2-.6,0l-.9-.8h0Z"/>
  </g>
</svg>