<?xml version="1.0" encoding="UTF-8"?>
<svg id="Layer_1" xmlns="http://www.w3.org/2000/svg" version="1.1" viewBox="0 0 512 512">
  <!-- Generator: Adobe Illustrator 30.0.0, SVG Export Plug-In . SVG Version: 2.1.1 Build 123)  -->
  <defs>
    <style>
      .st0 {
        fill: #fff;
      }
    </style>
  </defs>
  <path class="st0" d="M408.7,133.7c-23.5-28.3-46.3-41.9-48.4-43.1-15.1-9-34.7-3.9-43.6,11.2,0,.1-.1.3-.2.4-8.9,15.4-3.8,35.1,11.3,44.2h0s0,0,0,0c1.6,1,18,11.7,33.3,30.8,16,20.2,30.9,48.3,31,87,0,38.6-15.1,75.6-42.2,103-26.2,26.4-62,42.7-101.9,42.7s-75.7-16.3-101.9-42.7c-27.2-27.4-42.3-64.4-42.2-103,0-40,15.9-68.7,32.6-88.9,6.8-8.2,14.4-15.7,22.8-22.4,3-2.4,5.5-4.2,7.1-5.3l1.7-1.1h.2c0-.1,0-.1,0-.1,15.2-9.2,20.2-28.9,11.3-44.2-8.8-15.3-28.2-20.5-43.5-11.8-.1,0-.2.1-.4.2-2,1.2-24.9,14.9-48.4,43.1-23.4,28-47.6,72.2-47.5,130.5,0,116.2,93.2,210.4,208.2,210.5,115,0,208.2-94.3,208.2-210.5,0-58.4-24.1-102.5-47.5-130.5h0ZM248,280.4c17.8-.1,32.1-14.6,32-32.4V53.7c0-17.9-14.4-32.4-32-32.4s-32,14.5-32,32.4v194.3c0,17.9,14.4,32.4,32,32.4h0Z"/>
</svg>