<?xml version="1.0" encoding="UTF-8"?>
<svg id="_x32_" xmlns="http://www.w3.org/2000/svg" version="1.1" viewBox="0 0 800 800">
  <!-- Generator: Adobe Illustrator 30.1.0, SVG Export Plug-In . SVG Version: 2.1.1 Build 136)  -->
  <defs>
    <style>
      .st0, .st1 {
        fill: #fff;
      }

      .st1 {
        stroke: #fff;
        stroke-miterlimit: 10;
      }
    </style>
  </defs>
  <path class="st1" d="M625,386.2l-208.7-206.3h0c-23.5-23.5-54.6-35.3-85.4-35.2-30.8,0-61.8,11.7-85.4,35.3-23.6,23.5-35.4,54.5-35.3,85.4,0,30.9,11.7,61.9,35.3,85.4l49.2,48.7h-4.5c-40.4,0-77.1,10.1-104.6,27.3-13.7,8.6-25.2,19-33.3,31.2-8.2,12.1-13,26-13,40.7v82.3c0,14.7,4.8,28.6,13,40.7,12.3,18.2,31.8,32.6,55.5,42.7,23.9,10.1,52.1,15.8,82.3,15.8s77.1-10.2,104.5-27.4c13.7-8.5,25.2-19,33.4-31.2s12.9-26,12.9-40.7v-36.8l13.1,13h0c23.5,23.5,54.6,35.3,85.4,35.2,30.8,0,61.8-11.7,85.4-35.3s35.3-54.6,35.3-85.4-11.7-61.8-35.3-85.4h0ZM163.6,498.5c0-9.4,2.9-18.4,8.9-27.2,5.2-7.7,12.8-15.1,22.3-21.6l183.4,107.3c-4.2,2.3-8.5,4.5-13.3,6.4-21,9-46.7,14.2-74.4,14.2s-70.3-9.4-93.9-24.2c-11.7-7.4-21.1-16.1-27.3-25.4-2.3-3.5-4.2-6.9-5.7-10.5v-18.9h0ZM417.3,580.8c0,9.4-2.9,18.4-8.9,27.2-8.8,13.2-24.5,25.3-45,34-20.5,8.7-45.8,14-72.9,14s-69.1-9.3-91.8-23.7c-11.4-7.1-20.3-15.5-26.2-24.2-5.9-8.8-8.8-17.8-8.9-27.2v-34c11.6,12.8,27.4,23.5,46,31.4,23.3,9.9,51,15.6,80.8,15.6s75.7-10.1,102.5-26.8c9.3-5.9,17.6-12.6,24.3-20.1v33.9h0ZM417.3,517.2c-.3.7-.5,1.4-1,2.1-1.2,2.8-2.8,5.7-4.7,8.5-4,6.1-9.4,11.7-15.8,17.1l-181.5-106.2c1.1-.4,2.1-1.1,3.3-1.5,20.5-8.7,45.8-14,73-14s21.1.8,31.1,2.3c23.7,3.6,44.7,11.2,60.7,21.3,2,1.2,3.8,2.5,5.6,3.8,8.6,6.1,15.5,13,20.4,20.2l.3.3c5.9,8.8,8.9,17.8,8.9,27.2v18.9h-.2,0ZM604.7,536.6c-18,18-41.5,27-65.1,27s-47.1-8.9-65.1-27h0l-33.4-33v-5.2c0-14.7-4.8-28.6-12.9-40.7-10.2-15.1-25.5-27.6-44-37.2,2.3-6,5.3-12.6,8.8-19.2,10.1-19,25.4-39.8,45.6-55.7,20.1-15.8,44.8-27.1,75.3-28.9l90.6,89.6h0c18,18,27,41.5,27,65.1s-9,47.1-27,65v.3h0Z"/>
  <path class="st0" d="M290.4,683.5c-30,0-58.9-5.6-83.8-16.1-25.2-10.7-44.9-25.9-57.1-44-8.9-13.1-13.6-27.9-13.6-42.6v-82.3c0-14.8,4.7-29.6,13.6-42.6,8.1-12.1,19.7-23,34.4-32.1,27.7-17.4,63.9-27.2,102.3-27.9l-43.1-42.6c-23.5-23.5-36.5-54.7-36.4-87.9,0-33.2,12.9-64.4,36.4-87.9,23.4-23.5,54.6-36.4,87.7-36.4h.4c27.3,0,53.2,8.8,74.7,25l-1.3-2.9,223.1,220.6c23.5,23.5,36.4,54.7,36.4,87.9s-12.9,64.4-36.4,87.9c-23.5,23.4-54.6,36.3-87.7,36.3h-.4c-27.8,0-54.1-9.1-75.7-25.9l1,2.3-19.9-19.7v28.2c0,14.8-4.7,29.5-13.5,42.6-8.3,12.3-19.8,23.1-34.4,32.1-28.7,18-66.5,27.9-106.4,27.9h0ZM290.4,402.9c-38.6,0-75,9.5-102.6,26.8-13.8,8.7-24.7,18.8-32.2,30.1-8.1,11.9-12.4,25.3-12.4,38.6v82.3c0,13.4,4.3,26.7,12.4,38.6,11.5,16.9,30.1,31.2,53.9,41.4s51.9,15.5,80.9,15.6c38.6,0,75-9.6,102.6-26.9,13.7-8.5,24.6-18.7,32.3-30.1,8.1-11.9,12.4-25.3,12.4-38.6v-45.3l6.3,6.2-.2-.4,13,13c22.1,22.2,51.4,34.4,82.7,34.4h.4c31.2,0,60.5-12.2,82.6-34.3,22.1-22.1,34.4-51.5,34.4-82.9s-12.2-60.7-34.3-82.9l-194.4-192.2.2.4-14.5-14.6c-22.1-22.2-51.4-34.4-82.7-34.4h-.4c-31.2,0-60.5,12.2-82.6,34.4-22.2,22.2-34.4,51.5-34.4,82.8s12.1,60.7,34.4,82.9l55.7,55.1-9.1-.3h-4.5ZM290.4,659.6c-35.2,0-69.3-8.8-93.7-24.3-11.6-7.2-21-16-27.2-25.3-6.3-9.4-9.4-19-9.4-29.2v-43.3l6.2,6.9c11,12.3,26.5,22.8,44.8,30.5,23.5,10,51,15.2,79.5,15.2s73.6-9.3,100.6-26.3c9.2-5.7,17.1-12.3,23.6-19.5l6.2-6.9v43.3c0,10.1-3.1,19.7-9.4,29.2-9.4,14.1-26,26.5-46.6,35.3-21.9,9.3-47.6,14.2-74.3,14.2h0ZM167.2,555.5v25.3c0,8.7,2.8,17,8.3,25.3,5.7,8.5,14.4,16.5,25.1,23.2,23.3,14.8,56.1,23.1,89.9,23.1s50.5-4.7,71.6-13.6c19.4-8.2,34.8-19.8,43.4-32.8,5.5-8.3,8.3-16.6,8.3-25.3v-25.2c-5.6,5.3-11.9,10.1-18.9,14.4-28.1,17.6-65.2,27.3-104.3,27.3s-57.9-5.4-82.2-15.8c-16-6.8-30.1-15.7-41.1-26h0ZM290.2,581.1c-35.6,0-70.4-9-95.5-24.8-12.1-7.6-21.9-16.7-28.4-26.4-2.5-3.7-4.5-7.4-6.1-11.1l-.3-.6v-19.6c0-10.2,3.1-19.8,9.4-29.2,5.4-8.1,13.3-15.8,23.2-22.6l1.9-1.2,190.7,111.6-5.5,3c-4.5,2.4-9,4.6-13.5,6.6-22.3,9.5-48.5,14.5-75.7,14.5h-.3,0ZM167.2,516.5c1.3,3.1,3,6.1,5.1,9.3,6,8.9,15,17.3,26.3,24.4,23.9,15,57.3,23.7,91.7,23.7h.3c26.3,0,51.6-4.8,73-14,2.4-1.1,4.9-2.1,7.3-3.3l-175.8-102.9c-8.3,6-15,12.6-19.6,19.4-5.5,8.3-8.2,16.6-8.3,25.3v18.1h0ZM539.7,567.1c-25.5,0-49.5-9.9-67.6-27.9h0l-34.4-34.1v-6.6c0-13.4-4.3-26.7-12.4-38.6-9.7-14.2-24-26.3-42.6-36l-2.8-1.4,1.2-2.9c2.6-6.7,5.6-13.3,9-19.6,8.5-15.8,23.3-38.5,46.5-56.8,22.9-18.1,48.9-28,77.3-29.6h1.6c0,0,91.9,90.7,91.9,90.7,18.1,18.1,27.9,42.1,27.9,67.6s-10,49.5-27.9,67.6h0c-18.1,18.1-42.1,27.9-67.6,27.9h0ZM477.1,534h0c16.7,16.8,38.9,26,62.6,26s45.8-9.2,62.5-25.9c16.7-16.7,25.9-38.9,25.9-62.5s-8.9-45.2-25.2-61.9l-.7-.7-89.5-88.6c-26.3,1.8-50.5,11.2-71.7,28-22.2,17.5-36.5,39.3-44.6,54.6-2.8,5.2-5.3,10.5-7.5,15.8,18.2,10,32.6,22.3,42.4,36.9,8.9,13.2,13.5,27.9,13.5,42.6v3.6l32.2,31.9h0ZM396.1,549.2l-189.7-111,6.4-2.8c.4-.2.8-.4,1.2-.5.6-.4,1.3-.6,2.1-1,21.9-9.3,47.6-14.2,74.3-14.2s21.4.8,31.6,2.4c23.5,3.6,45,11.1,62,21.8,1.8,1.1,3.6,2.4,5.8,3.9,8.8,6.2,15.8,13.3,21,20.7.2.2.4.4.4.6,6.3,9.5,9.4,19,9.4,29.2v19.5l-.3.6c-.4.9-.7,1.6-1.1,2.4-1.3,2.9-2.9,5.8-5,8.9-4.1,6.1-9.6,12.1-16.6,17.8l-2,1.6h0ZM222.1,439.2l173.3,101.4c5.5-4.8,10-9.7,13.3-14.7,1.9-2.8,3.3-5.3,4.5-7.9v-.2c.3-.4.4-.7.6-1.2v-18.2c0-8.6-2.7-16.8-8.1-25.1h-.2c0,0-.3-.4-.3-.4-4.7-6.9-11.2-13.4-19.5-19.3-2-1.5-3.7-2.7-5.4-3.6-16.3-10.2-36.9-17.4-59.4-20.8-9.9-1.5-20.2-2.3-30.5-2.3-24.5,0-48.1,4.3-68.4,12.4h0Z"/>
</svg>