<?xml version="1.0" encoding="UTF-8"?>
<svg id="Layer_1" xmlns="http://www.w3.org/2000/svg" xmlns:xlink="http://www.w3.org/1999/xlink" version="1.1" viewBox="0 0 24 24">
  <!-- Generator: Adobe Illustrator 30.1.0, SVG Export Plug-In . SVG Version: 2.1.1 Build 136)  -->
  <defs>
    <style>
      .st0 {
        fill: none;
      }

      .st1 {
        fill: #ffc314;
      }

      .st2 {
        clip-path: url(#clippath);
      }
    </style>
    <clipPath id="clippath">
      <polygon class="st0" points="16.1 13.1 2.7 13.1 1 18 0 22.3 4.4 22.3 16.1 22.3 16.1 13.1"/>
    </clipPath>
  </defs>
  <path class="st1" d="M21,22.2c.2,0,.4.2.4.4s-.2.4-.4.4H3.7c-.2,0-.4-.2-.4-.4s.2-.4.4-.4h17.4,0Z"/>
  <g class="st2">
    <g>
      <path class="st1" d="M8.1,17.9c.9,0,1.8.3,2.5.8.7.6,1.1,1.4,1.2,2.3s-.3,1.8-.8,2.5-1.4,1.1-2.3,1.2-1.8-.3-2.5-.8c-.7-.6-1.1-1.4-1.2-2.3s.3-1.8.8-2.5c.6-.7,1.4-1.1,2.3-1.2h0Z"/>
      <path class="st1" d="M7.5,14.7c0-.3.2-.5.4-.5s.5.2.5.4v1.2c.1.3,0,.5-.3.5s-.5-.2-.5-.4v-1.2h0Z"/>
      <path class="st1" d="M12.3,16c.2-.2.4-.2.6,0,.2.2.2.4,0,.6l-.8.9c-.2.2-.4.2-.6,0-.2-.2-.2-.4,0-.6l.8-.9h0Z"/>
      <path class="st1" d="M14.9,20.4c.3,0,.5.2.5.4s-.2.5-.4.5h-1.2c-.3.1-.5,0-.5-.3s.2-.5.4-.5h1.2Z"/>
      <path class="st1" d="M13.6,25.3c.2.2.2.4,0,.6s-.4.2-.6,0l-.9-.8c-.2-.2-.2-.4,0-.6.2-.2.4-.2.6,0l.9.8h0Z"/>
      <path class="st1" d="M9.1,27.9c0,.3-.2.5-.4.5s-.5-.2-.5-.4v-1.2c-.1-.3,0-.5.3-.5s.5.2.5.4v1.2h0Z"/>
      <path class="st1" d="M4.3,26.6c-.2.2-.4.2-.6,0s-.2-.4,0-.6l.8-.9c.2-.2.4-.2.6,0s.2.4,0,.6l-.8.9h0Z"/>
      <path class="st1" d="M1.7,22.1c-.3,0-.5-.2-.5-.4s.2-.5.4-.5h1.2c.3-.1.5,0,.5.3s-.2.5-.4.5h-1.2Z"/>
      <path class="st1" d="M3,17.3c-.2-.2-.2-.4,0-.6.2-.2.4-.2.6,0l.9.8c.2.2.2.4,0,.6-.2.2-.4.2-.6,0l-.9-.8h0Z"/>
    </g>
  </g>
</svg>