<?xml version="1.0" encoding="UTF-8"?>
<svg id="Layer_1" xmlns="http://www.w3.org/2000/svg" version="1.1" viewBox="0 0 512 512">
  <!-- Generator: Adobe Illustrator 30.1.0, SVG Export Plug-In . SVG Version: 2.1.1 Build 136)  -->
  <defs>
    <style>
      .st0 {
        fill: #fff;
      }
    </style>
  </defs>
  <path class="st0" d="M329.4,464h-146.8c-8.5,0-16.6-3.4-22.6-9.4l-102.6-102.6c-6-6-9.4-14.1-9.4-22.6v-146.8c0-8.5,3.4-16.6,9.4-22.6l102.6-102.6c6-6,14.1-9.4,22.6-9.4h146.8c8.5,0,16.6,3.4,22.6,9.4l102.6,102.6c6,6,9.4,14.1,9.4,22.6v146.8c0,8.5-3.4,16.6-9.4,22.6l-102.6,102.6c-6,6-14.1,9.4-22.6,9.4Z"/>
</svg>