<?xml version="1.0" encoding="UTF-8"?>
<svg id="Layer_1" xmlns="http://www.w3.org/2000/svg" version="1.1" viewBox="0 0 24 15">
  <!-- Generator: Adobe Illustrator 30.1.0, SVG Export Plug-In . SVG Version: 2.1.1 Build 136)  -->
  <defs>
    <style>
      .st0 {
        fill: #e5e5e5;
      }
    </style>
  </defs>
  <path class="st0" d="M11.8,3.9c-1,0-1.8.3-2.4,1s-1,1.4-1,2.4.3,1.8,1,2.4,1.4,1,2.4,1,1.8-.3,2.4-1,1-1.4,1-2.4-.3-1.8-1-2.4-1.4-1-2.4-1Z"/>
  <path class="st0" d="M11.8.8c-3.7,0-6.7,3-6.7,6.7s3,6.7,6.7,6.7,6.7-3,6.7-6.7S15.4.8,11.8.8ZM11.8,11.5c-2.2,0-4.1-1.9-4.1-4.1s1.9-4.1,4.1-4.1,4.1,1.9,4.1,4.1-1.9,4.1-4.1,4.1Z"/>
  <path class="st0" d="M1.4,3.7C.7,6.5.4,8.3.4,8.3c0,0,0,1.1.2,1.1h.9v3.9c0,.4.3.8.8.8h.6c.4,0,.8-.3.8-.8V2.2c0-1.1-1.4-1.2-2.2,1.6Z"/>
  <path class="st0" d="M22.9,1.6h0c-.2,0-.2.2-.2.4v2.9h-.8v-2.9c0-.2-.2-.4-.4-.4s-.4.2-.4.4v2.9h-.9v-2.9c0-.2,0-.4-.2-.4h0c-.3,0-.7.3-.7.7v2.8c0,1.2.3,1.4.7,1.8.3.3.6.4.6.9v5.4c0,.4.3.8.8.8h.6c.4,0,.8-.3.8-.8v-5.4c0-.4.2-.6.6-.9s.7-.7.7-1.8v-2.8c0-.3-.3-.7-.7-.7,0,0-.2,0-.2,0Z"/>
</svg>