<?xml version="1.0" encoding="UTF-8"?>
<svg id="Layer_1" xmlns="http://www.w3.org/2000/svg" xmlns:xlink="http://www.w3.org/1999/xlink" version="1.1" viewBox="0 0 24 24">
  <!-- Generator: Adobe Illustrator 30.1.0, SVG Export Plug-In . SVG Version: 2.1.1 Build 136)  -->
  <defs>
    <style>
      .st0 {
        fill: none;
      }

      .st1 {
        fill: #ffc314;
      }

      .st2 {
        clip-path: url(#clippath);
      }
    </style>
    <clipPath id="clippath">
      <polygon class="st0" points="7.2 22.3 18.9 22.3 23.3 22.3 22.3 18 20.6 13.1 7.2 13.1 7.2 22.3"/>
    </clipPath>
  </defs>
  <path class="st1" d="M2.2,22.2h17.4c.2,0,.4.2.4.4s-.2.4-.4.4H2.3c-.2,0-.4-.2-.4-.4s.2-.4.4-.4h-.1Z"/>
  <g class="st2">
    <g>
      <path class="st1" d="M15.2,17.9c.9,0,1.7.5,2.3,1.2.5.7.9,1.6.8,2.5s-.5,1.7-1.2,2.3c-.7.5-1.6.9-2.5.8s-1.8-.5-2.3-1.2-.9-1.6-.8-2.5.5-1.7,1.2-2.3c.7-.5,1.6-.8,2.5-.8h0Z"/>
      <path class="st1" d="M15.7,14.7h0v1.2c0,.2-.2.4-.5.4s-.4-.2-.3-.5v-1.2c0-.2.3-.4.5-.4s.4.2.4.5h0Z"/>
      <path class="st1" d="M11,16l.8.9c.2.2.2.4,0,.6-.2.2-.4.2-.6,0l-.8-.9c-.2-.2-.2-.4,0-.6s.4-.2.6,0h0Z"/>
      <path class="st1" d="M8.4,20.5h1.2c.2,0,.4.2.4.5s-.2.4-.5.3h-1.2c-.2,0-.4-.3-.4-.5s.2-.4.5-.4h0Z"/>
      <path class="st1" d="M9.7,25.3l.9-.8c.2-.2.4-.2.6,0,.2.2.2.4,0,.6l-.9.8c-.2.2-.4.2-.6,0s-.2-.4,0-.6h0Z"/>
      <path class="st1" d="M14.3,27.9h0v-1.2c0-.2.2-.4.5-.4s.4.2.3.5v1.2c0,.2-.3.4-.5.4s-.4-.2-.4-.5h0Z"/>
      <path class="st1" d="M19,26.6l-.8-.9c-.2-.2-.2-.4,0-.6s.4-.2.6,0l.8.9c.2.2.2.4,0,.6s-.4.2-.6,0h0Z"/>
      <path class="st1" d="M21.6,22h-1.2c-.2,0-.4-.2-.4-.5s.2-.4.5-.3h1.2c.2,0,.4.3.4.5s-.2.4-.5.4h0Z"/>
      <path class="st1" d="M20.3,17.3l-.9.8c-.2.2-.4.2-.6,0s-.2-.4,0-.6l.9-.8c.2-.2.4-.2.6,0s.2.4,0,.6h0Z"/>
    </g>
  </g>
</svg>