<?xml version="1.0" encoding="UTF-8"?>
<svg id="Layer_1" xmlns="http://www.w3.org/2000/svg" version="1.1" viewBox="0 0 512 512">
  <!-- Generator: Adobe Illustrator 30.1.0, SVG Export Plug-In . SVG Version: 2.1.1 Build 136)  -->
  <defs>
    <style>
      .st0 {
        fill: #fff;
      }
    </style>
  </defs>
  <path class="st0" d="M96,82.9c-21.8,10.7-11.1,32.1-11.1,32.1l125.9,259.1.2.4,1.4,3c10.8,22.2,37.9,30.9,60.8,19.8l111.3-54.2c23-11.1,32.8-37.9,22-60.1l-85.6-176c-10.8-22-41.3-33.3-64.1-22.2l-108,52.5-21-43.1s-10.7-21.3-32.1-11.1h.2ZM186.4,172.4l75.5-36.6c8.9-4.4,19.7-.7,24.1,8.3h0l15.6,32.2c4.4,8.9.7,19.7-8.3,24.1h0l-75.5,36.6c-8.9,4.4-19.7.7-24.1-8.3h0l-15.6-32.2c-4.4-8.9-.7-19.7,8.3-24.1h0ZM233.3,283l24.7-12c5.9-2.8,13.2-.4,16,5.6s.4,13.2-5.6,16l-24.7,12c-5.9,2.8-13.2.4-16-5.6s-.4-13.2,5.6-16h0ZM295.1,253l24.7-12c5.9-2.8,13.2-.4,16,5.6,2.8,5.9.4,13.2-5.6,16l-24.7,12c-5.9,2.8-13.2.4-16-5.6-2.8-5.9-.4-13.2,5.6-16h0ZM254.3,326.2l24.7-12c5.9-2.8,13.2-.4,16,5.6s.4,13.2-5.6,16l-24.7,12c-5.9,2.8-13.2.4-16-5.6s-.4-13.2,5.6-16h0ZM316.1,296.2l24.7-12c5.9-2.8,13.2-.4,16,5.6,2.8,5.9.4,13.2-5.6,16l-24.7,12c-5.9,2.8-13.2.4-16-5.6-2.8-5.9-.4-13.2,5.6-16h0Z"/>
</svg>