<?xml version="1.0" encoding="UTF-8"?>
<svg id="Layer_1" xmlns="http://www.w3.org/2000/svg" version="1.1" viewBox="0 0 24 24">
  <!-- Generator: Adobe Illustrator 30.1.0, SVG Export Plug-In . SVG Version: 2.1.1 Build 136)  -->
  <defs>
    <style>
      .st0 {
        fill: #ffa914;
      }
    </style>
  </defs>
  <path class="st0" d="M5.4,2.8c-1.6.9-2,2.8-1.1,4.4l5.5-3.1c-.9-1.6-2.8-2-4.4-1.1h0v-.2Z"/>
  <path class="st0" d="M18.6,2.8c-1.6-.9-3.5-.3-4.4,1.1l5.5,3.1c.9-1.6.3-3.5-1.1-4.4h0v.2Z"/>
  <path class="st0" d="M19.7,12.9c0-4-3.1-7.4-7.2-7.7v-1.1h-1v1.1c-4,.2-7.2,3.6-7.2,7.7s1.1,4.7,3,6l-1,1.8,1.3.9,1.2-1.7c1,.4,2,.7,3.1.7s2.1-.2,3.1-.7l1.2,1.7,1.3-.9-1-1.7c1.9-1.5,3-3.6,3-6.1h-.1s.3,0,.3,0ZM12.5,14.6h0l-3.9-1.5.4-1.1,3,1.1,1.9-4.6,1,.3-2.3,5.7h-.1,0Z"/>
</svg>